<?xml version="1.0" encoding="utf-8" standalone="no"?>
<!DOCTYPE svg PUBLIC "-//W3C//DTD SVG 1.1//EN"
  "http://www.w3.org/Graphics/SVG/1.1/DTD/svg11.dtd">
<svg height="253.208123pt" version="1.1" viewBox="0 0 253.19952 253.208123" width="253.19952pt" xmlns="http://www.w3.org/2000/svg" xmlns:xlink="http://www.w3.org/1999/xlink">
 <metadata>
  <rdf:RDF xmlns:cc="http://creativecommons.org/ns#" xmlns:dc="http://purl.org/dc/elements/1.1/" xmlns:rdf="http://www.w3.org/1999/02/22-rdf-syntax-ns#">
   <cc:Work>
    <dc:type rdf:resource="http://purl.org/dc/dcmitype/StillImage"/>
    <dc:date>2022-04-03T20:04:54.726799</dc:date>
    <dc:format>image/svg+xml</dc:format>
    <dc:creator>
     <cc:Agent>
      <dc:title>Matplotlib v3.4.3, https://matplotlib.org/</dc:title>
     </cc:Agent>
    </dc:creator>
   </cc:Work>
  </rdf:RDF>
 </metadata>
 <defs>
  <style type="text/css">*{stroke-linecap:butt;stroke-linejoin:round;}</style>
 </defs>
 <g id="figure_1">
  <g id="patch_1">
   <path d="M 0 253.208123 
L 253.19952 253.208123 
L 253.19952 0 
L 0 0 
z
" style="fill:#ffffff;"/>
  </g>
  <g id="axes_1">
   <g id="patch_2">
    <path d="M 33.689926 102.938819 
L 249.59952 102.938819 
L 249.59952 35.816797 
L 33.689926 35.816797 
z
" style="fill:#ffffff;"/>
   </g>
   <g id="matplotlib.axis_1">
    <g id="xtick_1">
     <g id="line2d_1">
      <defs>
       <path d="M 0 0 
L 0 -3 
" id="m1c4e2744bf" style="stroke:#000000;stroke-width:0.5;"/>
      </defs>
      <g>
       <use style="stroke:#000000;stroke-width:0.5;" x="88.799718" xlink:href="#m1c4e2744bf" y="102.938819"/>
      </g>
     </g>
     <g id="line2d_2">
      <defs>
       <path d="M 0 0 
L 0 3 
" id="m236b86f562" style="stroke:#000000;stroke-width:0.5;"/>
      </defs>
      <g>
       <use style="stroke:#000000;stroke-width:0.5;" x="88.799718" xlink:href="#m236b86f562" y="35.816797"/>
      </g>
     </g>
     <g id="text_1">
      <!-- $\mathdefault{10}$ -->
      <g transform="translate(83.818382 113.357317)scale(0.1 -0.1)">
       <defs>
        <path d="M 1702 4083 
C 1702 4217 1696 4224 1606 4224 
C 1357 3927 979 3833 621 3820 
C 602 3820 570 3820 563 3808 
C 557 3795 557 3782 557 3648 
C 755 3648 1088 3686 1344 3839 
L 1344 467 
C 1344 243 1331 166 781 166 
L 589 166 
L 589 0 
C 896 6 1216 12 1523 12 
C 1830 12 2150 6 2458 0 
L 2458 166 
L 2266 166 
C 1715 166 1702 236 1702 467 
L 1702 4083 
z
" id="CMR17-31" transform="scale(0.015625)"/>
        <path d="M 2688 2038 
C 2688 2430 2682 3099 2413 3613 
C 2176 4063 1798 4224 1466 4224 
C 1158 4224 768 4082 525 3620 
C 269 3137 243 2539 243 2038 
C 243 1671 250 1112 448 623 
C 723 -39 1216 -128 1466 -128 
C 1760 -128 2208 -7 2470 604 
C 2662 1048 2688 1568 2688 2038 
z
M 1466 -26 
C 1056 -26 813 328 723 816 
C 653 1196 653 1749 653 2109 
C 653 2604 653 3015 736 3407 
C 858 3954 1216 4121 1466 4121 
C 1728 4121 2067 3947 2189 3420 
C 2272 3054 2278 2623 2278 2109 
C 2278 1691 2278 1176 2202 797 
C 2067 96 1690 -26 1466 -26 
z
" id="CMR17-30" transform="scale(0.015625)"/>
       </defs>
       <use transform="scale(0.996264)" xlink:href="#CMR17-31"/>
       <use transform="translate(45.690477 0)scale(0.996264)" xlink:href="#CMR17-30"/>
      </g>
     </g>
    </g>
    <g id="xtick_2">
     <g id="line2d_3">
      <g>
       <use style="stroke:#000000;stroke-width:0.5;" x="139.128294" xlink:href="#m1c4e2744bf" y="102.938819"/>
      </g>
     </g>
     <g id="line2d_4">
      <g>
       <use style="stroke:#000000;stroke-width:0.5;" x="139.128294" xlink:href="#m236b86f562" y="35.816797"/>
      </g>
     </g>
     <g id="text_2">
      <!-- $\mathdefault{20}$ -->
      <g transform="translate(134.146959 113.357317)scale(0.1 -0.1)">
       <defs>
        <path d="M 2669 990 
L 2554 990 
C 2490 537 2438 460 2413 422 
C 2381 371 1920 371 1830 371 
L 602 371 
C 832 620 1280 1073 1824 1596 
C 2214 1966 2669 2400 2669 3033 
C 2669 3788 2067 4224 1395 4224 
C 691 4224 262 3603 262 3027 
C 262 2777 448 2745 525 2745 
C 589 2745 781 2783 781 3007 
C 781 3206 614 3264 525 3264 
C 486 3264 448 3257 422 3244 
C 544 3788 915 4057 1306 4057 
C 1862 4057 2227 3616 2227 3033 
C 2227 2477 1901 1998 1536 1583 
L 262 147 
L 262 0 
L 2515 0 
L 2669 990 
z
" id="CMR17-32" transform="scale(0.015625)"/>
       </defs>
       <use transform="scale(0.996264)" xlink:href="#CMR17-32"/>
       <use transform="translate(45.690477 0)scale(0.996264)" xlink:href="#CMR17-30"/>
      </g>
     </g>
    </g>
    <g id="xtick_3">
     <g id="line2d_5">
      <g>
       <use style="stroke:#000000;stroke-width:0.5;" x="189.456871" xlink:href="#m1c4e2744bf" y="102.938819"/>
      </g>
     </g>
     <g id="line2d_6">
      <g>
       <use style="stroke:#000000;stroke-width:0.5;" x="189.456871" xlink:href="#m236b86f562" y="35.816797"/>
      </g>
     </g>
     <g id="text_3">
      <!-- $\mathdefault{30}$ -->
      <g transform="translate(184.475536 113.357317)scale(0.1 -0.1)">
       <defs>
        <path d="M 1414 2176 
C 1984 2176 2234 1673 2234 1094 
C 2234 322 1824 25 1453 25 
C 1114 25 563 193 390 691 
C 422 678 454 678 486 678 
C 640 678 755 780 755 947 
C 755 1132 614 1216 486 1216 
C 378 1216 211 1164 211 927 
C 211 335 787 -128 1466 -128 
C 2176 -128 2720 432 2720 1087 
C 2720 1718 2208 2176 1600 2246 
C 2086 2347 2554 2776 2554 3353 
C 2554 3856 2048 4224 1472 4224 
C 890 4224 378 3862 378 3347 
C 378 3123 544 3084 627 3084 
C 762 3084 877 3167 877 3334 
C 877 3500 762 3584 627 3584 
C 602 3584 570 3584 544 3571 
C 730 3999 1235 4076 1459 4076 
C 1683 4076 2106 3966 2106 3347 
C 2106 3167 2080 2851 1862 2574 
C 1670 2329 1453 2316 1242 2297 
C 1210 2297 1062 2284 1037 2284 
C 992 2278 966 2272 966 2227 
C 966 2182 973 2176 1101 2176 
L 1414 2176 
z
" id="CMR17-33" transform="scale(0.015625)"/>
       </defs>
       <use transform="scale(0.996264)" xlink:href="#CMR17-33"/>
       <use transform="translate(45.690477 0)scale(0.996264)" xlink:href="#CMR17-30"/>
      </g>
     </g>
    </g>
    <g id="xtick_4">
     <g id="line2d_7">
      <g>
       <use style="stroke:#000000;stroke-width:0.5;" x="239.785448" xlink:href="#m1c4e2744bf" y="102.938819"/>
      </g>
     </g>
     <g id="line2d_8">
      <g>
       <use style="stroke:#000000;stroke-width:0.5;" x="239.785448" xlink:href="#m236b86f562" y="35.816797"/>
      </g>
     </g>
     <g id="text_4">
      <!-- $\mathdefault{40}$ -->
      <g transform="translate(234.804112 113.357317)scale(0.1 -0.1)">
       <defs>
        <path d="M 2150 4147 
C 2150 4281 2144 4288 2029 4288 
L 128 1254 
L 128 1088 
L 1779 1088 
L 1779 460 
C 1779 230 1766 166 1318 166 
L 1197 166 
L 1197 0 
C 1402 12 1747 12 1965 12 
C 2182 12 2528 12 2733 0 
L 2733 166 
L 2611 166 
C 2163 166 2150 230 2150 460 
L 2150 1088 
L 2803 1088 
L 2803 1254 
L 2150 1254 
L 2150 4147 
z
M 1798 3723 
L 1798 1254 
L 256 1254 
L 1798 3723 
z
" id="CMR17-34" transform="scale(0.015625)"/>
       </defs>
       <use transform="scale(0.996264)" xlink:href="#CMR17-34"/>
       <use transform="translate(45.690477 0)scale(0.996264)" xlink:href="#CMR17-30"/>
      </g>
     </g>
    </g>
    <g id="xtick_5">
     <g id="line2d_9">
      <defs>
       <path d="M 0 0 
L 0 -1.5 
" id="m9bd96bea6b" style="stroke:#000000;stroke-width:0.5;"/>
      </defs>
      <g>
       <use style="stroke:#000000;stroke-width:0.5;" x="38.471141" xlink:href="#m9bd96bea6b" y="102.938819"/>
      </g>
     </g>
     <g id="line2d_10">
      <defs>
       <path d="M 0 0 
L 0 1.5 
" id="m7384f8d365" style="stroke:#000000;stroke-width:0.5;"/>
      </defs>
      <g>
       <use style="stroke:#000000;stroke-width:0.5;" x="38.471141" xlink:href="#m7384f8d365" y="35.816797"/>
      </g>
     </g>
    </g>
    <g id="xtick_6">
     <g id="line2d_11">
      <g>
       <use style="stroke:#000000;stroke-width:0.5;" x="48.536856" xlink:href="#m9bd96bea6b" y="102.938819"/>
      </g>
     </g>
     <g id="line2d_12">
      <g>
       <use style="stroke:#000000;stroke-width:0.5;" x="48.536856" xlink:href="#m7384f8d365" y="35.816797"/>
      </g>
     </g>
    </g>
    <g id="xtick_7">
     <g id="line2d_13">
      <g>
       <use style="stroke:#000000;stroke-width:0.5;" x="58.602572" xlink:href="#m9bd96bea6b" y="102.938819"/>
      </g>
     </g>
     <g id="line2d_14">
      <g>
       <use style="stroke:#000000;stroke-width:0.5;" x="58.602572" xlink:href="#m7384f8d365" y="35.816797"/>
      </g>
     </g>
    </g>
    <g id="xtick_8">
     <g id="line2d_15">
      <g>
       <use style="stroke:#000000;stroke-width:0.5;" x="68.668287" xlink:href="#m9bd96bea6b" y="102.938819"/>
      </g>
     </g>
     <g id="line2d_16">
      <g>
       <use style="stroke:#000000;stroke-width:0.5;" x="68.668287" xlink:href="#m7384f8d365" y="35.816797"/>
      </g>
     </g>
    </g>
    <g id="xtick_9">
     <g id="line2d_17">
      <g>
       <use style="stroke:#000000;stroke-width:0.5;" x="78.734002" xlink:href="#m9bd96bea6b" y="102.938819"/>
      </g>
     </g>
     <g id="line2d_18">
      <g>
       <use style="stroke:#000000;stroke-width:0.5;" x="78.734002" xlink:href="#m7384f8d365" y="35.816797"/>
      </g>
     </g>
    </g>
    <g id="xtick_10">
     <g id="line2d_19">
      <g>
       <use style="stroke:#000000;stroke-width:0.5;" x="98.865433" xlink:href="#m9bd96bea6b" y="102.938819"/>
      </g>
     </g>
     <g id="line2d_20">
      <g>
       <use style="stroke:#000000;stroke-width:0.5;" x="98.865433" xlink:href="#m7384f8d365" y="35.816797"/>
      </g>
     </g>
    </g>
    <g id="xtick_11">
     <g id="line2d_21">
      <g>
       <use style="stroke:#000000;stroke-width:0.5;" x="108.931148" xlink:href="#m9bd96bea6b" y="102.938819"/>
      </g>
     </g>
     <g id="line2d_22">
      <g>
       <use style="stroke:#000000;stroke-width:0.5;" x="108.931148" xlink:href="#m7384f8d365" y="35.816797"/>
      </g>
     </g>
    </g>
    <g id="xtick_12">
     <g id="line2d_23">
      <g>
       <use style="stroke:#000000;stroke-width:0.5;" x="118.996864" xlink:href="#m9bd96bea6b" y="102.938819"/>
      </g>
     </g>
     <g id="line2d_24">
      <g>
       <use style="stroke:#000000;stroke-width:0.5;" x="118.996864" xlink:href="#m7384f8d365" y="35.816797"/>
      </g>
     </g>
    </g>
    <g id="xtick_13">
     <g id="line2d_25">
      <g>
       <use style="stroke:#000000;stroke-width:0.5;" x="129.062579" xlink:href="#m9bd96bea6b" y="102.938819"/>
      </g>
     </g>
     <g id="line2d_26">
      <g>
       <use style="stroke:#000000;stroke-width:0.5;" x="129.062579" xlink:href="#m7384f8d365" y="35.816797"/>
      </g>
     </g>
    </g>
    <g id="xtick_14">
     <g id="line2d_27">
      <g>
       <use style="stroke:#000000;stroke-width:0.5;" x="149.19401" xlink:href="#m9bd96bea6b" y="102.938819"/>
      </g>
     </g>
     <g id="line2d_28">
      <g>
       <use style="stroke:#000000;stroke-width:0.5;" x="149.19401" xlink:href="#m7384f8d365" y="35.816797"/>
      </g>
     </g>
    </g>
    <g id="xtick_15">
     <g id="line2d_29">
      <g>
       <use style="stroke:#000000;stroke-width:0.5;" x="159.259725" xlink:href="#m9bd96bea6b" y="102.938819"/>
      </g>
     </g>
     <g id="line2d_30">
      <g>
       <use style="stroke:#000000;stroke-width:0.5;" x="159.259725" xlink:href="#m7384f8d365" y="35.816797"/>
      </g>
     </g>
    </g>
    <g id="xtick_16">
     <g id="line2d_31">
      <g>
       <use style="stroke:#000000;stroke-width:0.5;" x="169.32544" xlink:href="#m9bd96bea6b" y="102.938819"/>
      </g>
     </g>
     <g id="line2d_32">
      <g>
       <use style="stroke:#000000;stroke-width:0.5;" x="169.32544" xlink:href="#m7384f8d365" y="35.816797"/>
      </g>
     </g>
    </g>
    <g id="xtick_17">
     <g id="line2d_33">
      <g>
       <use style="stroke:#000000;stroke-width:0.5;" x="179.391156" xlink:href="#m9bd96bea6b" y="102.938819"/>
      </g>
     </g>
     <g id="line2d_34">
      <g>
       <use style="stroke:#000000;stroke-width:0.5;" x="179.391156" xlink:href="#m7384f8d365" y="35.816797"/>
      </g>
     </g>
    </g>
    <g id="xtick_18">
     <g id="line2d_35">
      <g>
       <use style="stroke:#000000;stroke-width:0.5;" x="199.522586" xlink:href="#m9bd96bea6b" y="102.938819"/>
      </g>
     </g>
     <g id="line2d_36">
      <g>
       <use style="stroke:#000000;stroke-width:0.5;" x="199.522586" xlink:href="#m7384f8d365" y="35.816797"/>
      </g>
     </g>
    </g>
    <g id="xtick_19">
     <g id="line2d_37">
      <g>
       <use style="stroke:#000000;stroke-width:0.5;" x="209.588302" xlink:href="#m9bd96bea6b" y="102.938819"/>
      </g>
     </g>
     <g id="line2d_38">
      <g>
       <use style="stroke:#000000;stroke-width:0.5;" x="209.588302" xlink:href="#m7384f8d365" y="35.816797"/>
      </g>
     </g>
    </g>
    <g id="xtick_20">
     <g id="line2d_39">
      <g>
       <use style="stroke:#000000;stroke-width:0.5;" x="219.654017" xlink:href="#m9bd96bea6b" y="102.938819"/>
      </g>
     </g>
     <g id="line2d_40">
      <g>
       <use style="stroke:#000000;stroke-width:0.5;" x="219.654017" xlink:href="#m7384f8d365" y="35.816797"/>
      </g>
     </g>
    </g>
    <g id="xtick_21">
     <g id="line2d_41">
      <g>
       <use style="stroke:#000000;stroke-width:0.5;" x="229.719732" xlink:href="#m9bd96bea6b" y="102.938819"/>
      </g>
     </g>
     <g id="line2d_42">
      <g>
       <use style="stroke:#000000;stroke-width:0.5;" x="229.719732" xlink:href="#m7384f8d365" y="35.816797"/>
      </g>
     </g>
    </g>
   </g>
   <g id="matplotlib.axis_2">
    <g id="ytick_1">
     <g id="line2d_43">
      <defs>
       <path d="M 0 0 
L 3 0 
" id="m70be5af607" style="stroke:#000000;stroke-width:0.5;"/>
      </defs>
      <g>
       <use style="stroke:#000000;stroke-width:0.5;" x="33.689926" xlink:href="#m70be5af607" y="102.938819"/>
      </g>
     </g>
     <g id="line2d_44">
      <defs>
       <path d="M 0 0 
L -3 0 
" id="m282c24dc6a" style="stroke:#000000;stroke-width:0.5;"/>
      </defs>
      <g>
       <use style="stroke:#000000;stroke-width:0.5;" x="249.59952" xlink:href="#m282c24dc6a" y="102.938819"/>
      </g>
     </g>
     <g id="text_5">
      <!-- $\mathdefault{0}$ -->
      <g transform="translate(25.208591 106.398068)scale(0.1 -0.1)">
       <use transform="scale(0.996264)" xlink:href="#CMR17-30"/>
      </g>
     </g>
    </g>
    <g id="ytick_2">
     <g id="line2d_45">
      <g>
       <use style="stroke:#000000;stroke-width:0.5;" x="33.689926" xlink:href="#m70be5af607" y="86.158313"/>
      </g>
     </g>
     <g id="line2d_46">
      <g>
       <use style="stroke:#000000;stroke-width:0.5;" x="249.59952" xlink:href="#m282c24dc6a" y="86.158313"/>
      </g>
     </g>
     <g id="text_6">
      <!-- $\mathdefault{1}$ -->
      <g transform="translate(25.208591 89.617563)scale(0.1 -0.1)">
       <use transform="scale(0.996264)" xlink:href="#CMR17-31"/>
      </g>
     </g>
    </g>
    <g id="ytick_3">
     <g id="line2d_47">
      <g>
       <use style="stroke:#000000;stroke-width:0.5;" x="33.689926" xlink:href="#m70be5af607" y="69.377808"/>
      </g>
     </g>
     <g id="line2d_48">
      <g>
       <use style="stroke:#000000;stroke-width:0.5;" x="249.59952" xlink:href="#m282c24dc6a" y="69.377808"/>
      </g>
     </g>
     <g id="text_7">
      <!-- $\mathdefault{2}$ -->
      <g transform="translate(25.208591 72.837057)scale(0.1 -0.1)">
       <use transform="scale(0.996264)" xlink:href="#CMR17-32"/>
      </g>
     </g>
    </g>
    <g id="ytick_4">
     <g id="line2d_49">
      <g>
       <use style="stroke:#000000;stroke-width:0.5;" x="33.689926" xlink:href="#m70be5af607" y="52.597303"/>
      </g>
     </g>
     <g id="line2d_50">
      <g>
       <use style="stroke:#000000;stroke-width:0.5;" x="249.59952" xlink:href="#m282c24dc6a" y="52.597303"/>
      </g>
     </g>
     <g id="text_8">
      <!-- $\mathdefault{3}$ -->
      <g transform="translate(25.208591 56.056552)scale(0.1 -0.1)">
       <use transform="scale(0.996264)" xlink:href="#CMR17-33"/>
      </g>
     </g>
    </g>
    <g id="ytick_5">
     <g id="line2d_51">
      <g>
       <use style="stroke:#000000;stroke-width:0.5;" x="33.689926" xlink:href="#m70be5af607" y="35.816797"/>
      </g>
     </g>
     <g id="line2d_52">
      <g>
       <use style="stroke:#000000;stroke-width:0.5;" x="249.59952" xlink:href="#m282c24dc6a" y="35.816797"/>
      </g>
     </g>
     <g id="text_9">
      <!-- $\mathdefault{4}$ -->
      <g transform="translate(25.208591 39.276046)scale(0.1 -0.1)">
       <use transform="scale(0.996264)" xlink:href="#CMR17-34"/>
      </g>
     </g>
    </g>
    <g id="ytick_6">
     <g id="line2d_53">
      <defs>
       <path d="M 0 0 
L 1.5 0 
" id="m06f149d5e7" style="stroke:#000000;stroke-width:0.5;"/>
      </defs>
      <g>
       <use style="stroke:#000000;stroke-width:0.5;" x="33.689926" xlink:href="#m06f149d5e7" y="99.582718"/>
      </g>
     </g>
     <g id="line2d_54">
      <defs>
       <path d="M 0 0 
L -1.5 0 
" id="md31f3bfc8b" style="stroke:#000000;stroke-width:0.5;"/>
      </defs>
      <g>
       <use style="stroke:#000000;stroke-width:0.5;" x="249.59952" xlink:href="#md31f3bfc8b" y="99.582718"/>
      </g>
     </g>
    </g>
    <g id="ytick_7">
     <g id="line2d_55">
      <g>
       <use style="stroke:#000000;stroke-width:0.5;" x="33.689926" xlink:href="#m06f149d5e7" y="96.226617"/>
      </g>
     </g>
     <g id="line2d_56">
      <g>
       <use style="stroke:#000000;stroke-width:0.5;" x="249.59952" xlink:href="#md31f3bfc8b" y="96.226617"/>
      </g>
     </g>
    </g>
    <g id="ytick_8">
     <g id="line2d_57">
      <g>
       <use style="stroke:#000000;stroke-width:0.5;" x="33.689926" xlink:href="#m06f149d5e7" y="92.870516"/>
      </g>
     </g>
     <g id="line2d_58">
      <g>
       <use style="stroke:#000000;stroke-width:0.5;" x="249.59952" xlink:href="#md31f3bfc8b" y="92.870516"/>
      </g>
     </g>
    </g>
    <g id="ytick_9">
     <g id="line2d_59">
      <g>
       <use style="stroke:#000000;stroke-width:0.5;" x="33.689926" xlink:href="#m06f149d5e7" y="89.514414"/>
      </g>
     </g>
     <g id="line2d_60">
      <g>
       <use style="stroke:#000000;stroke-width:0.5;" x="249.59952" xlink:href="#md31f3bfc8b" y="89.514414"/>
      </g>
     </g>
    </g>
    <g id="ytick_10">
     <g id="line2d_61">
      <g>
       <use style="stroke:#000000;stroke-width:0.5;" x="33.689926" xlink:href="#m06f149d5e7" y="82.802212"/>
      </g>
     </g>
     <g id="line2d_62">
      <g>
       <use style="stroke:#000000;stroke-width:0.5;" x="249.59952" xlink:href="#md31f3bfc8b" y="82.802212"/>
      </g>
     </g>
    </g>
    <g id="ytick_11">
     <g id="line2d_63">
      <g>
       <use style="stroke:#000000;stroke-width:0.5;" x="33.689926" xlink:href="#m06f149d5e7" y="79.446111"/>
      </g>
     </g>
     <g id="line2d_64">
      <g>
       <use style="stroke:#000000;stroke-width:0.5;" x="249.59952" xlink:href="#md31f3bfc8b" y="79.446111"/>
      </g>
     </g>
    </g>
    <g id="ytick_12">
     <g id="line2d_65">
      <g>
       <use style="stroke:#000000;stroke-width:0.5;" x="33.689926" xlink:href="#m06f149d5e7" y="76.09001"/>
      </g>
     </g>
     <g id="line2d_66">
      <g>
       <use style="stroke:#000000;stroke-width:0.5;" x="249.59952" xlink:href="#md31f3bfc8b" y="76.09001"/>
      </g>
     </g>
    </g>
    <g id="ytick_13">
     <g id="line2d_67">
      <g>
       <use style="stroke:#000000;stroke-width:0.5;" x="33.689926" xlink:href="#m06f149d5e7" y="72.733909"/>
      </g>
     </g>
     <g id="line2d_68">
      <g>
       <use style="stroke:#000000;stroke-width:0.5;" x="249.59952" xlink:href="#md31f3bfc8b" y="72.733909"/>
      </g>
     </g>
    </g>
    <g id="ytick_14">
     <g id="line2d_69">
      <g>
       <use style="stroke:#000000;stroke-width:0.5;" x="33.689926" xlink:href="#m06f149d5e7" y="66.021707"/>
      </g>
     </g>
     <g id="line2d_70">
      <g>
       <use style="stroke:#000000;stroke-width:0.5;" x="249.59952" xlink:href="#md31f3bfc8b" y="66.021707"/>
      </g>
     </g>
    </g>
    <g id="ytick_15">
     <g id="line2d_71">
      <g>
       <use style="stroke:#000000;stroke-width:0.5;" x="33.689926" xlink:href="#m06f149d5e7" y="62.665606"/>
      </g>
     </g>
     <g id="line2d_72">
      <g>
       <use style="stroke:#000000;stroke-width:0.5;" x="249.59952" xlink:href="#md31f3bfc8b" y="62.665606"/>
      </g>
     </g>
    </g>
    <g id="ytick_16">
     <g id="line2d_73">
      <g>
       <use style="stroke:#000000;stroke-width:0.5;" x="33.689926" xlink:href="#m06f149d5e7" y="59.309505"/>
      </g>
     </g>
     <g id="line2d_74">
      <g>
       <use style="stroke:#000000;stroke-width:0.5;" x="249.59952" xlink:href="#md31f3bfc8b" y="59.309505"/>
      </g>
     </g>
    </g>
    <g id="ytick_17">
     <g id="line2d_75">
      <g>
       <use style="stroke:#000000;stroke-width:0.5;" x="33.689926" xlink:href="#m06f149d5e7" y="55.953404"/>
      </g>
     </g>
     <g id="line2d_76">
      <g>
       <use style="stroke:#000000;stroke-width:0.5;" x="249.59952" xlink:href="#md31f3bfc8b" y="55.953404"/>
      </g>
     </g>
    </g>
    <g id="ytick_18">
     <g id="line2d_77">
      <g>
       <use style="stroke:#000000;stroke-width:0.5;" x="33.689926" xlink:href="#m06f149d5e7" y="49.241201"/>
      </g>
     </g>
     <g id="line2d_78">
      <g>
       <use style="stroke:#000000;stroke-width:0.5;" x="249.59952" xlink:href="#md31f3bfc8b" y="49.241201"/>
      </g>
     </g>
    </g>
    <g id="ytick_19">
     <g id="line2d_79">
      <g>
       <use style="stroke:#000000;stroke-width:0.5;" x="33.689926" xlink:href="#m06f149d5e7" y="45.8851"/>
      </g>
     </g>
     <g id="line2d_80">
      <g>
       <use style="stroke:#000000;stroke-width:0.5;" x="249.59952" xlink:href="#md31f3bfc8b" y="45.8851"/>
      </g>
     </g>
    </g>
    <g id="ytick_20">
     <g id="line2d_81">
      <g>
       <use style="stroke:#000000;stroke-width:0.5;" x="33.689926" xlink:href="#m06f149d5e7" y="42.528999"/>
      </g>
     </g>
     <g id="line2d_82">
      <g>
       <use style="stroke:#000000;stroke-width:0.5;" x="249.59952" xlink:href="#md31f3bfc8b" y="42.528999"/>
      </g>
     </g>
    </g>
    <g id="ytick_21">
     <g id="line2d_83">
      <g>
       <use style="stroke:#000000;stroke-width:0.5;" x="33.689926" xlink:href="#m06f149d5e7" y="39.172898"/>
      </g>
     </g>
     <g id="line2d_84">
      <g>
       <use style="stroke:#000000;stroke-width:0.5;" x="249.59952" xlink:href="#md31f3bfc8b" y="39.172898"/>
      </g>
     </g>
    </g>
   </g>
   <g id="line2d_85">
    <path clip-path="url(#p8425168a0f)" d="M 43.503999 47.935678 
L 48.536856 49.937592 
L 53.569714 47.375209 
L 58.602572 47.571541 
L 63.635429 50.224539 
L 68.668287 47.370175 
L 73.701145 48.229337 
L 78.734002 49.561709 
L 83.76686 49.491231 
L 88.799718 50.003036 
L 93.832575 49.363699 
L 98.865433 50.06009 
L 103.898291 50.1893 
L 108.931148 50.675935 
L 113.964006 49.214353 
L 118.996864 50.689359 
L 124.029721 49.18247 
L 129.062579 50.075193 
L 134.095437 49.048226 
L 139.128294 49.459348 
L 144.161152 50.239641 
L 149.19401 51.182706 
L 154.226867 50.056734 
L 159.259725 50.509808 
L 164.292583 49.8453 
L 169.32544 51.825399 
L 174.358298 51.023291 
L 179.391156 50.934354 
L 184.424013 51.078667 
L 189.456871 52.305322 
L 194.489729 53.461499 
L 199.522586 50.211115 
L 204.555444 50.595388 
L 209.588302 52.115702 
L 214.621159 50.930998 
L 219.654017 51.097125 
L 224.686875 52.637576 
L 229.719732 52.296931 
L 234.75259 52.874181 
L 239.785448 51.805263 
" style="fill:none;stroke:#0c5da5;stroke-linecap:square;"/>
   </g>
   <g id="line2d_86">
    <path clip-path="url(#p8425168a0f)" d="M 43.503999 47.87359 
L 48.536856 49.487875 
L 53.569714 49.481163 
L 58.602572 49.758041 
L 63.635429 49.565065 
L 68.668287 53.637694 
L 73.701145 51.954609 
L 78.734002 52.995 
L 83.76686 54.793871 
L 88.799718 55.085851 
L 93.832575 57.037424 
L 98.865433 57.540839 
L 103.898291 59.577993 
L 108.931148 59.470598 
L 113.964006 60.784511 
L 118.996864 61.200668 
L 124.029721 61.856785 
L 129.062579 61.979283 
L 134.095437 62.439069 
L 139.128294 62.455849 
L 144.161152 62.603518 
L 149.19401 62.694133 
L 154.226867 62.67064 
L 159.259725 62.766289 
L 164.292583 62.729372 
L 169.32544 62.603518 
L 174.358298 62.752864 
L 179.391156 62.700845 
L 184.424013 62.794816 
L 189.456871 62.673996 
L 194.489729 62.726016 
L 199.522586 62.665606 
L 204.555444 62.769645 
L 209.588302 62.732728 
L 214.621159 62.685742 
L 219.654017 62.773001 
L 224.686875 62.67903 
L 229.719732 62.650503 
L 234.75259 62.732728 
L 239.785448 62.754542 
" style="fill:none;stroke:#00b945;stroke-linecap:square;"/>
   </g>
   <g id="line2d_87">
    <path clip-path="url(#p8425168a0f)" d="M 43.503999 62.754542 
L 48.536856 62.754542 
L 53.569714 62.754542 
L 58.602572 62.754542 
L 63.635429 62.754542 
L 68.668287 62.754542 
L 73.701145 62.754542 
L 78.734002 62.754542 
L 83.76686 62.754542 
L 88.799718 62.754542 
L 93.832575 62.754542 
L 98.865433 62.754542 
L 103.898291 62.754542 
L 108.931148 62.754542 
L 113.964006 62.754542 
L 118.996864 62.754542 
L 124.029721 62.754542 
L 129.062579 62.754542 
L 134.095437 62.754542 
L 139.128294 62.754542 
L 144.161152 62.754542 
L 149.19401 62.754542 
L 154.226867 62.754542 
L 159.259725 62.754542 
L 164.292583 62.754542 
L 169.32544 62.754542 
L 174.358298 62.754542 
L 179.391156 62.754542 
L 184.424013 62.754542 
L 189.456871 62.754542 
L 194.489729 62.754542 
L 199.522586 62.754542 
L 204.555444 62.754542 
L 209.588302 62.754542 
L 214.621159 62.754542 
L 219.654017 62.754542 
L 224.686875 62.754542 
L 229.719732 62.754542 
L 234.75259 62.754542 
L 239.785448 62.754542 
" style="fill:none;stroke:#ff9500;stroke-dasharray:1,1.65;stroke-dashoffset:0;"/>
   </g>
   <g id="patch_3">
    <path d="M 33.689926 102.938819 
L 33.689926 35.816797 
" style="fill:none;stroke:#000000;stroke-linecap:square;stroke-linejoin:miter;stroke-width:0.5;"/>
   </g>
   <g id="patch_4">
    <path d="M 249.59952 102.938819 
L 249.59952 35.816797 
" style="fill:none;stroke:#000000;stroke-linecap:square;stroke-linejoin:miter;stroke-width:0.5;"/>
   </g>
   <g id="patch_5">
    <path d="M 33.689926 102.938819 
L 249.59952 102.938819 
" style="fill:none;stroke:#000000;stroke-linecap:square;stroke-linejoin:miter;stroke-width:0.5;"/>
   </g>
   <g id="patch_6">
    <path d="M 33.689926 35.816797 
L 249.59952 35.816797 
" style="fill:none;stroke:#000000;stroke-linecap:square;stroke-linejoin:miter;stroke-width:0.5;"/>
   </g>
   <g id="legend_1">
    <g id="line2d_88">
     <path d="M 37.689926 11.1 
L 57.689926 11.1 
" style="fill:none;stroke:#0c5da5;stroke-linecap:square;"/>
    </g>
    <g id="line2d_89"/>
    <g id="text_10">
     <!-- MAE 1e-3 -->
     <g transform="translate(65.689926 14.6)scale(0.1 -0.1)">
      <defs>
       <path d="M 1338 4249 
C 1299 4345 1293 4352 1158 4352 
L 339 4352 
L 339 4185 
C 781 4185 851 4185 851 3898 
L 851 624 
C 851 465 851 166 339 166 
L 339 0 
C 486 12 755 12 915 12 
C 1075 12 1344 12 1491 0 
L 1491 166 
C 979 166 979 465 979 624 
L 979 4159 
L 986 4159 
L 2490 102 
C 2515 38 2528 0 2579 0 
C 2630 0 2643 38 2669 102 
L 4186 4191 
L 4192 4191 
L 4192 453 
C 4192 166 4122 166 3680 166 
L 3680 0 
C 3853 12 4198 12 4384 12 
C 4570 12 4922 12 5094 0 
L 5094 166 
C 4653 166 4582 166 4582 453 
L 4582 3898 
C 4582 4185 4653 4185 5094 4185 
L 5094 4352 
L 4282 4352 
C 4147 4352 4141 4345 4102 4249 
L 2720 516 
L 1338 4249 
z
" id="CMR17-4d" transform="scale(0.015625)"/>
       <path d="M 2323 4441 
C 2291 4524 2278 4544 2214 4544 
C 2150 4544 2138 4524 2106 4441 
L 749 580 
C 627 236 371 166 147 166 
L 147 0 
C 262 12 518 12 640 12 
C 800 12 1056 12 1210 0 
L 1210 166 
C 909 179 864 382 864 459 
C 864 516 877 548 890 586 
L 1229 1536 
L 2906 1536 
L 3290 453 
C 3322 376 3322 363 3322 338 
C 3322 166 3046 166 2925 166 
L 2925 0 
C 3110 12 3443 12 3642 12 
C 3808 12 4128 12 4282 0 
L 4282 166 
C 3942 166 3827 166 3744 402 
L 2323 4441 
z
M 2067 3924 
L 2848 1702 
L 1286 1702 
L 2067 3924 
z
" id="CMR17-41" transform="scale(0.015625)"/>
       <path d="M 3885 1614 
L 3770 1614 
C 3629 676 3546 166 2419 166 
L 1530 166 
C 1274 166 1261 198 1261 415 
L 1261 2176 
L 1862 2176 
C 2464 2176 2522 1959 2522 1429 
L 2637 1429 
L 2637 3086 
L 2522 3086 
C 2522 2558 2464 2342 1862 2342 
L 1261 2342 
L 1261 3924 
C 1261 4141 1274 4172 1530 4172 
L 2406 4172 
C 3398 4172 3514 3778 3603 2933 
L 3718 2933 
L 3565 4339 
L 326 4339 
L 326 4172 
C 768 4172 838 4172 838 3886 
L 838 453 
C 838 166 768 166 326 166 
L 326 0 
L 3654 0 
L 3885 1614 
z
" id="CMR17-45" transform="scale(0.015625)"/>
       <path d="M 2438 1503 
C 2464 1529 2464 1542 2464 1606 
C 2464 2251 2118 2816 1389 2816 
C 710 2816 173 2175 173 1394 
C 173 554 781 -64 1459 -64 
C 2176 -64 2458 619 2458 755 
C 2458 800 2419 800 2406 800 
C 2362 800 2355 787 2330 709 
C 2189 270 1837 51 1504 51 
C 1229 51 954 206 781 490 
C 582 819 582 1200 582 1503 
L 2438 1503 
z
M 589 1600 
C 634 2511 1126 2713 1382 2713 
C 1818 2713 2112 2308 2118 1600 
L 589 1600 
z
" id="CMR17-65" transform="scale(0.015625)"/>
       <path d="M 1632 1254 
L 1632 1536 
L 26 1536 
L 26 1254 
L 1632 1254 
z
" id="CMR17-2d" transform="scale(0.015625)"/>
      </defs>
      <use transform="scale(0.996264)" xlink:href="#CMR17-4d"/>
      <use transform="translate(84.686941 0)scale(0.996264)" xlink:href="#CMR17-41"/>
      <use transform="translate(153.75937 0)scale(0.996264)" xlink:href="#CMR17-45"/>
      <use transform="translate(246.421637 0)scale(0.996264)" xlink:href="#CMR17-31"/>
      <use transform="translate(292.112114 0)scale(0.996264)" xlink:href="#CMR17-65"/>
      <use transform="translate(332.597775 0)scale(0.996264)" xlink:href="#CMR17-2d"/>
      <use transform="translate(362.673741 0)scale(0.996264)" xlink:href="#CMR17-33"/>
     </g>
    </g>
    <g id="line2d_90">
     <path d="M 37.689926 25.037178 
L 57.689926 25.037178 
" style="fill:none;stroke:#00b945;stroke-linecap:square;"/>
    </g>
    <g id="line2d_91"/>
    <g id="text_11">
     <!-- MAE 2e-3 -->
     <g transform="translate(65.689926 28.537178)scale(0.1 -0.1)">
      <use transform="scale(0.996264)" xlink:href="#CMR17-4d"/>
      <use transform="translate(84.686941 0)scale(0.996264)" xlink:href="#CMR17-41"/>
      <use transform="translate(153.75937 0)scale(0.996264)" xlink:href="#CMR17-45"/>
      <use transform="translate(246.421637 0)scale(0.996264)" xlink:href="#CMR17-32"/>
      <use transform="translate(292.112114 0)scale(0.996264)" xlink:href="#CMR17-65"/>
      <use transform="translate(332.597775 0)scale(0.996264)" xlink:href="#CMR17-2d"/>
      <use transform="translate(362.673741 0)scale(0.996264)" xlink:href="#CMR17-33"/>
     </g>
    </g>
    <g id="line2d_92">
     <path d="M 169.944775 11.1 
L 189.944775 11.1 
" style="fill:none;stroke:#ff9500;stroke-dasharray:1,1.65;stroke-dashoffset:0;"/>
    </g>
    <g id="line2d_93"/>
    <g id="text_12">
     <!-- Asymptote -->
     <g transform="translate(197.944775 14.6)scale(0.1 -0.1)">
      <defs>
       <path d="M 1978 2688 
C 1978 2803 1971 2809 1933 2809 
C 1907 2809 1901 2803 1824 2707 
C 1805 2681 1747 2617 1728 2592 
C 1523 2809 1235 2816 1126 2816 
C 416 2816 160 2444 160 2073 
C 160 1497 813 1363 998 1324 
C 1402 1241 1542 1216 1677 1100 
C 1760 1024 1901 883 1901 652 
C 1901 384 1747 38 1158 38 
C 602 38 403 460 288 1024 
C 269 1113 269 1120 218 1120 
C 166 1120 160 1113 160 985 
L 160 64 
C 160 -52 166 -58 205 -58 
C 237 -58 243 -52 275 0 
C 314 57 410 211 448 275 
C 576 102 800 -64 1158 -64 
C 1792 -64 2131 281 2131 780 
C 2131 1107 1958 1280 1875 1356 
C 1683 1555 1459 1600 1190 1651 
C 838 1728 390 1817 390 2208 
C 390 2374 480 2726 1126 2726 
C 1811 2726 1850 2086 1862 1881 
C 1869 1849 1901 1843 1920 1843 
C 1978 1843 1978 1862 1978 1971 
L 1978 2688 
z
" id="CMR17-73" transform="scale(0.015625)"/>
       <path d="M 2496 2183 
C 2656 2579 2944 2585 3034 2585 
L 3034 2752 
C 2912 2745 2752 2739 2630 2739 
C 2496 2739 2285 2739 2157 2752 
L 2157 2585 
C 2400 2566 2406 2384 2406 2332 
C 2406 2268 2394 2235 2362 2158 
L 1664 409 
L 902 2300 
C 870 2378 870 2423 870 2430 
C 870 2572 1018 2585 1171 2585 
L 1171 2752 
C 1018 2739 742 2739 582 2739 
C 410 2739 205 2739 64 2752 
L 64 2585 
C 410 2585 448 2553 531 2345 
L 1485 -31 
C 1197 -795 1030 -1242 627 -1242 
C 557 -1242 397 -1223 282 -1106 
C 429 -1093 493 -1002 493 -892 
C 493 -782 416 -685 288 -685 
C 147 -685 77 -782 77 -899 
C 77 -1158 339 -1344 627 -1344 
C 998 -1344 1229 -983 1357 -659 
L 2496 2183 
z
" id="CMR17-79" transform="scale(0.015625)"/>
       <path d="M 4326 1954 
C 4326 2276 4269 2816 3507 2816 
C 3072 2816 2771 2520 2656 2173 
L 2650 2173 
C 2573 2700 2195 2816 1837 2816 
C 1331 2816 1069 2424 973 2166 
L 966 2166 
L 966 2816 
L 211 2745 
L 211 2578 
C 589 2578 646 2540 646 2231 
L 646 443 
C 646 198 621 166 211 166 
L 211 0 
C 365 12 646 12 813 12 
C 979 12 1267 12 1421 0 
L 1421 166 
C 1011 166 986 192 986 443 
L 986 1678 
C 986 2269 1344 2713 1792 2713 
C 2266 2713 2317 2289 2317 1980 
L 2317 443 
C 2317 198 2291 166 1882 166 
L 1882 0 
C 2035 12 2317 12 2483 12 
C 2650 12 2938 12 3091 0 
L 3091 166 
C 2682 166 2656 192 2656 443 
L 2656 1678 
C 2656 2269 3014 2713 3462 2713 
C 3936 2713 3987 2289 3987 1980 
L 3987 443 
C 3987 198 3962 166 3552 166 
L 3552 0 
C 3706 12 3987 12 4154 12 
C 4320 12 4608 12 4762 0 
L 4762 166 
C 4352 166 4326 192 4326 443 
L 4326 1954 
z
" id="CMR17-6d" transform="scale(0.015625)"/>
       <path d="M 1408 -1114 
C 998 -1114 973 -1088 973 -834 
L 973 380 
C 1158 109 1427 -64 1766 -64 
C 2406 -64 3053 503 3053 1382 
C 3053 2196 2496 2816 1837 2816 
C 1453 2816 1139 2603 960 2345 
L 960 2816 
L 198 2745 
L 198 2577 
C 576 2577 634 2539 634 2228 
L 634 -834 
C 634 -1081 608 -1114 198 -1114 
L 198 -1280 
C 352 -1268 634 -1268 800 -1268 
C 966 -1268 1254 -1268 1408 -1280 
L 1408 -1114 
z
M 973 2015 
C 973 2106 973 2241 1222 2481 
C 1254 2506 1472 2700 1792 2700 
C 2259 2700 2643 2112 2643 1376 
C 2643 639 2234 38 1728 38 
C 1498 38 1248 148 1056 451 
C 973 594 973 632 973 736 
L 973 2015 
z
" id="CMR17-70" transform="scale(0.015625)"/>
       <path d="M 966 2585 
L 1862 2585 
L 1862 2752 
L 966 2752 
L 966 3968 
L 851 3968 
C 838 3292 614 2700 70 2687 
L 70 2585 
L 627 2585 
L 627 778 
C 627 655 627 -64 1370 -64 
C 1747 -64 1965 308 1965 784 
L 1965 1151 
L 1850 1151 
L 1850 790 
C 1850 347 1677 51 1408 51 
C 1222 51 966 179 966 765 
L 966 2585 
z
" id="CMR17-74" transform="scale(0.015625)"/>
       <path d="M 2758 1356 
C 2758 2176 2163 2816 1466 2816 
C 768 2816 173 2176 173 1356 
C 173 550 768 -64 1466 -64 
C 2163 -64 2758 550 2758 1356 
z
M 1466 51 
C 1165 51 909 230 762 480 
C 602 768 582 1126 582 1408 
C 582 1676 595 2009 762 2297 
C 890 2508 1139 2713 1466 2713 
C 1754 2713 1997 2553 2150 2329 
C 2349 2028 2349 1606 2349 1408 
C 2349 1158 2336 774 2163 467 
C 1984 172 1709 51 1466 51 
z
" id="CMR17-6f" transform="scale(0.015625)"/>
      </defs>
      <use transform="scale(0.996264)" xlink:href="#CMR17-41"/>
      <use transform="translate(69.07243 0)scale(0.996264)" xlink:href="#CMR17-73"/>
      <use transform="translate(104.873767 0)scale(0.996264)" xlink:href="#CMR17-79"/>
      <use transform="translate(153.166683 0)scale(0.996264)" xlink:href="#CMR17-6d"/>
      <use transform="translate(230.086273 0)scale(0.996264)" xlink:href="#CMR17-70"/>
      <use transform="translate(280.981643 0)scale(0.996264)" xlink:href="#CMR17-74"/>
      <use transform="translate(316.262411 0)scale(0.996264)" xlink:href="#CMR17-6f"/>
      <use transform="translate(361.952888 0)scale(0.996264)" xlink:href="#CMR17-74"/>
      <use transform="translate(397.233656 0)scale(0.996264)" xlink:href="#CMR17-65"/>
     </g>
    </g>
   </g>
  </g>
  <g id="axes_2">
   <g id="patch_7">
    <path d="M 33.689926 220.625191 
L 249.59952 220.625191 
L 249.59952 153.503169 
L 33.689926 153.503169 
z
" style="fill:#ffffff;"/>
   </g>
   <g id="matplotlib.axis_3">
    <g id="xtick_22">
     <g id="line2d_94">
      <g>
       <use style="stroke:#000000;stroke-width:0.5;" x="88.799718" xlink:href="#m1c4e2744bf" y="220.625191"/>
      </g>
     </g>
     <g id="line2d_95">
      <g>
       <use style="stroke:#000000;stroke-width:0.5;" x="88.799718" xlink:href="#m236b86f562" y="153.503169"/>
      </g>
     </g>
     <g id="text_13">
      <!-- $\mathdefault{10}$ -->
      <g transform="translate(83.818382 231.043689)scale(0.1 -0.1)">
       <use transform="scale(0.996264)" xlink:href="#CMR17-31"/>
       <use transform="translate(45.690477 0)scale(0.996264)" xlink:href="#CMR17-30"/>
      </g>
     </g>
    </g>
    <g id="xtick_23">
     <g id="line2d_96">
      <g>
       <use style="stroke:#000000;stroke-width:0.5;" x="139.128294" xlink:href="#m1c4e2744bf" y="220.625191"/>
      </g>
     </g>
     <g id="line2d_97">
      <g>
       <use style="stroke:#000000;stroke-width:0.5;" x="139.128294" xlink:href="#m236b86f562" y="153.503169"/>
      </g>
     </g>
     <g id="text_14">
      <!-- $\mathdefault{20}$ -->
      <g transform="translate(134.146959 231.043689)scale(0.1 -0.1)">
       <use transform="scale(0.996264)" xlink:href="#CMR17-32"/>
       <use transform="translate(45.690477 0)scale(0.996264)" xlink:href="#CMR17-30"/>
      </g>
     </g>
    </g>
    <g id="xtick_24">
     <g id="line2d_98">
      <g>
       <use style="stroke:#000000;stroke-width:0.5;" x="189.456871" xlink:href="#m1c4e2744bf" y="220.625191"/>
      </g>
     </g>
     <g id="line2d_99">
      <g>
       <use style="stroke:#000000;stroke-width:0.5;" x="189.456871" xlink:href="#m236b86f562" y="153.503169"/>
      </g>
     </g>
     <g id="text_15">
      <!-- $\mathdefault{30}$ -->
      <g transform="translate(184.475536 231.043689)scale(0.1 -0.1)">
       <use transform="scale(0.996264)" xlink:href="#CMR17-33"/>
       <use transform="translate(45.690477 0)scale(0.996264)" xlink:href="#CMR17-30"/>
      </g>
     </g>
    </g>
    <g id="xtick_25">
     <g id="line2d_100">
      <g>
       <use style="stroke:#000000;stroke-width:0.5;" x="239.785448" xlink:href="#m1c4e2744bf" y="220.625191"/>
      </g>
     </g>
     <g id="line2d_101">
      <g>
       <use style="stroke:#000000;stroke-width:0.5;" x="239.785448" xlink:href="#m236b86f562" y="153.503169"/>
      </g>
     </g>
     <g id="text_16">
      <!-- $\mathdefault{40}$ -->
      <g transform="translate(234.804112 231.043689)scale(0.1 -0.1)">
       <use transform="scale(0.996264)" xlink:href="#CMR17-34"/>
       <use transform="translate(45.690477 0)scale(0.996264)" xlink:href="#CMR17-30"/>
      </g>
     </g>
    </g>
    <g id="xtick_26">
     <g id="line2d_102">
      <g>
       <use style="stroke:#000000;stroke-width:0.5;" x="38.471141" xlink:href="#m9bd96bea6b" y="220.625191"/>
      </g>
     </g>
     <g id="line2d_103">
      <g>
       <use style="stroke:#000000;stroke-width:0.5;" x="38.471141" xlink:href="#m7384f8d365" y="153.503169"/>
      </g>
     </g>
    </g>
    <g id="xtick_27">
     <g id="line2d_104">
      <g>
       <use style="stroke:#000000;stroke-width:0.5;" x="48.536856" xlink:href="#m9bd96bea6b" y="220.625191"/>
      </g>
     </g>
     <g id="line2d_105">
      <g>
       <use style="stroke:#000000;stroke-width:0.5;" x="48.536856" xlink:href="#m7384f8d365" y="153.503169"/>
      </g>
     </g>
    </g>
    <g id="xtick_28">
     <g id="line2d_106">
      <g>
       <use style="stroke:#000000;stroke-width:0.5;" x="58.602572" xlink:href="#m9bd96bea6b" y="220.625191"/>
      </g>
     </g>
     <g id="line2d_107">
      <g>
       <use style="stroke:#000000;stroke-width:0.5;" x="58.602572" xlink:href="#m7384f8d365" y="153.503169"/>
      </g>
     </g>
    </g>
    <g id="xtick_29">
     <g id="line2d_108">
      <g>
       <use style="stroke:#000000;stroke-width:0.5;" x="68.668287" xlink:href="#m9bd96bea6b" y="220.625191"/>
      </g>
     </g>
     <g id="line2d_109">
      <g>
       <use style="stroke:#000000;stroke-width:0.5;" x="68.668287" xlink:href="#m7384f8d365" y="153.503169"/>
      </g>
     </g>
    </g>
    <g id="xtick_30">
     <g id="line2d_110">
      <g>
       <use style="stroke:#000000;stroke-width:0.5;" x="78.734002" xlink:href="#m9bd96bea6b" y="220.625191"/>
      </g>
     </g>
     <g id="line2d_111">
      <g>
       <use style="stroke:#000000;stroke-width:0.5;" x="78.734002" xlink:href="#m7384f8d365" y="153.503169"/>
      </g>
     </g>
    </g>
    <g id="xtick_31">
     <g id="line2d_112">
      <g>
       <use style="stroke:#000000;stroke-width:0.5;" x="98.865433" xlink:href="#m9bd96bea6b" y="220.625191"/>
      </g>
     </g>
     <g id="line2d_113">
      <g>
       <use style="stroke:#000000;stroke-width:0.5;" x="98.865433" xlink:href="#m7384f8d365" y="153.503169"/>
      </g>
     </g>
    </g>
    <g id="xtick_32">
     <g id="line2d_114">
      <g>
       <use style="stroke:#000000;stroke-width:0.5;" x="108.931148" xlink:href="#m9bd96bea6b" y="220.625191"/>
      </g>
     </g>
     <g id="line2d_115">
      <g>
       <use style="stroke:#000000;stroke-width:0.5;" x="108.931148" xlink:href="#m7384f8d365" y="153.503169"/>
      </g>
     </g>
    </g>
    <g id="xtick_33">
     <g id="line2d_116">
      <g>
       <use style="stroke:#000000;stroke-width:0.5;" x="118.996864" xlink:href="#m9bd96bea6b" y="220.625191"/>
      </g>
     </g>
     <g id="line2d_117">
      <g>
       <use style="stroke:#000000;stroke-width:0.5;" x="118.996864" xlink:href="#m7384f8d365" y="153.503169"/>
      </g>
     </g>
    </g>
    <g id="xtick_34">
     <g id="line2d_118">
      <g>
       <use style="stroke:#000000;stroke-width:0.5;" x="129.062579" xlink:href="#m9bd96bea6b" y="220.625191"/>
      </g>
     </g>
     <g id="line2d_119">
      <g>
       <use style="stroke:#000000;stroke-width:0.5;" x="129.062579" xlink:href="#m7384f8d365" y="153.503169"/>
      </g>
     </g>
    </g>
    <g id="xtick_35">
     <g id="line2d_120">
      <g>
       <use style="stroke:#000000;stroke-width:0.5;" x="149.19401" xlink:href="#m9bd96bea6b" y="220.625191"/>
      </g>
     </g>
     <g id="line2d_121">
      <g>
       <use style="stroke:#000000;stroke-width:0.5;" x="149.19401" xlink:href="#m7384f8d365" y="153.503169"/>
      </g>
     </g>
    </g>
    <g id="xtick_36">
     <g id="line2d_122">
      <g>
       <use style="stroke:#000000;stroke-width:0.5;" x="159.259725" xlink:href="#m9bd96bea6b" y="220.625191"/>
      </g>
     </g>
     <g id="line2d_123">
      <g>
       <use style="stroke:#000000;stroke-width:0.5;" x="159.259725" xlink:href="#m7384f8d365" y="153.503169"/>
      </g>
     </g>
    </g>
    <g id="xtick_37">
     <g id="line2d_124">
      <g>
       <use style="stroke:#000000;stroke-width:0.5;" x="169.32544" xlink:href="#m9bd96bea6b" y="220.625191"/>
      </g>
     </g>
     <g id="line2d_125">
      <g>
       <use style="stroke:#000000;stroke-width:0.5;" x="169.32544" xlink:href="#m7384f8d365" y="153.503169"/>
      </g>
     </g>
    </g>
    <g id="xtick_38">
     <g id="line2d_126">
      <g>
       <use style="stroke:#000000;stroke-width:0.5;" x="179.391156" xlink:href="#m9bd96bea6b" y="220.625191"/>
      </g>
     </g>
     <g id="line2d_127">
      <g>
       <use style="stroke:#000000;stroke-width:0.5;" x="179.391156" xlink:href="#m7384f8d365" y="153.503169"/>
      </g>
     </g>
    </g>
    <g id="xtick_39">
     <g id="line2d_128">
      <g>
       <use style="stroke:#000000;stroke-width:0.5;" x="199.522586" xlink:href="#m9bd96bea6b" y="220.625191"/>
      </g>
     </g>
     <g id="line2d_129">
      <g>
       <use style="stroke:#000000;stroke-width:0.5;" x="199.522586" xlink:href="#m7384f8d365" y="153.503169"/>
      </g>
     </g>
    </g>
    <g id="xtick_40">
     <g id="line2d_130">
      <g>
       <use style="stroke:#000000;stroke-width:0.5;" x="209.588302" xlink:href="#m9bd96bea6b" y="220.625191"/>
      </g>
     </g>
     <g id="line2d_131">
      <g>
       <use style="stroke:#000000;stroke-width:0.5;" x="209.588302" xlink:href="#m7384f8d365" y="153.503169"/>
      </g>
     </g>
    </g>
    <g id="xtick_41">
     <g id="line2d_132">
      <g>
       <use style="stroke:#000000;stroke-width:0.5;" x="219.654017" xlink:href="#m9bd96bea6b" y="220.625191"/>
      </g>
     </g>
     <g id="line2d_133">
      <g>
       <use style="stroke:#000000;stroke-width:0.5;" x="219.654017" xlink:href="#m7384f8d365" y="153.503169"/>
      </g>
     </g>
    </g>
    <g id="xtick_42">
     <g id="line2d_134">
      <g>
       <use style="stroke:#000000;stroke-width:0.5;" x="229.719732" xlink:href="#m9bd96bea6b" y="220.625191"/>
      </g>
     </g>
     <g id="line2d_135">
      <g>
       <use style="stroke:#000000;stroke-width:0.5;" x="229.719732" xlink:href="#m7384f8d365" y="153.503169"/>
      </g>
     </g>
    </g>
   </g>
   <g id="matplotlib.axis_4">
    <g id="ytick_22">
     <g id="line2d_136">
      <g>
       <use style="stroke:#000000;stroke-width:0.5;" x="33.689926" xlink:href="#m70be5af607" y="220.625191"/>
      </g>
     </g>
     <g id="line2d_137">
      <g>
       <use style="stroke:#000000;stroke-width:0.5;" x="249.59952" xlink:href="#m282c24dc6a" y="220.625191"/>
      </g>
     </g>
     <g id="text_17">
      <!-- $\mathdefault{0}$ -->
      <g transform="translate(25.208591 224.08444)scale(0.1 -0.1)">
       <use transform="scale(0.996264)" xlink:href="#CMR17-30"/>
      </g>
     </g>
    </g>
    <g id="ytick_23">
     <g id="line2d_138">
      <g>
       <use style="stroke:#000000;stroke-width:0.5;" x="33.689926" xlink:href="#m70be5af607" y="207.200787"/>
      </g>
     </g>
     <g id="line2d_139">
      <g>
       <use style="stroke:#000000;stroke-width:0.5;" x="249.59952" xlink:href="#m282c24dc6a" y="207.200787"/>
      </g>
     </g>
     <g id="text_18">
      <!-- $\mathdefault{5}$ -->
      <g transform="translate(25.208591 210.660036)scale(0.1 -0.1)">
       <defs>
        <path d="M 730 3750 
C 794 3724 1056 3641 1325 3641 
C 1920 3641 2246 3961 2432 4140 
C 2432 4191 2432 4224 2394 4224 
C 2387 4224 2374 4224 2323 4198 
C 2099 4102 1837 4032 1517 4032 
C 1325 4032 1037 4055 723 4191 
C 653 4224 640 4224 634 4224 
C 602 4224 595 4217 595 4090 
L 595 2231 
C 595 2113 595 2080 659 2080 
C 691 2080 704 2093 736 2139 
C 941 2435 1222 2560 1542 2560 
C 1766 2560 2246 2415 2246 1293 
C 2246 1087 2246 716 2054 422 
C 1894 159 1645 25 1370 25 
C 947 25 518 319 403 812 
C 429 806 480 793 506 793 
C 589 793 749 838 749 1036 
C 749 1209 627 1280 506 1280 
C 358 1280 262 1190 262 1011 
C 262 454 704 -128 1382 -128 
C 2042 -128 2669 441 2669 1267 
C 2669 2054 2170 2662 1549 2662 
C 1222 2662 947 2540 730 2304 
L 730 3750 
z
" id="CMR17-35" transform="scale(0.015625)"/>
       </defs>
       <use transform="scale(0.996264)" xlink:href="#CMR17-35"/>
      </g>
     </g>
    </g>
    <g id="ytick_24">
     <g id="line2d_140">
      <g>
       <use style="stroke:#000000;stroke-width:0.5;" x="33.689926" xlink:href="#m70be5af607" y="193.776382"/>
      </g>
     </g>
     <g id="line2d_141">
      <g>
       <use style="stroke:#000000;stroke-width:0.5;" x="249.59952" xlink:href="#m282c24dc6a" y="193.776382"/>
      </g>
     </g>
     <g id="text_19">
      <!-- $\mathdefault{10}$ -->
      <g transform="translate(20.227256 197.235632)scale(0.1 -0.1)">
       <use transform="scale(0.996264)" xlink:href="#CMR17-31"/>
       <use transform="translate(45.690477 0)scale(0.996264)" xlink:href="#CMR17-30"/>
      </g>
     </g>
    </g>
    <g id="ytick_25">
     <g id="line2d_142">
      <g>
       <use style="stroke:#000000;stroke-width:0.5;" x="33.689926" xlink:href="#m70be5af607" y="180.351978"/>
      </g>
     </g>
     <g id="line2d_143">
      <g>
       <use style="stroke:#000000;stroke-width:0.5;" x="249.59952" xlink:href="#m282c24dc6a" y="180.351978"/>
      </g>
     </g>
     <g id="text_20">
      <!-- $\mathdefault{15}$ -->
      <g transform="translate(20.227256 183.811227)scale(0.1 -0.1)">
       <use transform="scale(0.996264)" xlink:href="#CMR17-31"/>
       <use transform="translate(45.690477 0)scale(0.996264)" xlink:href="#CMR17-35"/>
      </g>
     </g>
    </g>
    <g id="ytick_26">
     <g id="line2d_144">
      <g>
       <use style="stroke:#000000;stroke-width:0.5;" x="33.689926" xlink:href="#m70be5af607" y="166.927574"/>
      </g>
     </g>
     <g id="line2d_145">
      <g>
       <use style="stroke:#000000;stroke-width:0.5;" x="249.59952" xlink:href="#m282c24dc6a" y="166.927574"/>
      </g>
     </g>
     <g id="text_21">
      <!-- $\mathdefault{20}$ -->
      <g transform="translate(20.227256 170.386823)scale(0.1 -0.1)">
       <use transform="scale(0.996264)" xlink:href="#CMR17-32"/>
       <use transform="translate(45.690477 0)scale(0.996264)" xlink:href="#CMR17-30"/>
      </g>
     </g>
    </g>
    <g id="ytick_27">
     <g id="line2d_146">
      <g>
       <use style="stroke:#000000;stroke-width:0.5;" x="33.689926" xlink:href="#m70be5af607" y="153.503169"/>
      </g>
     </g>
     <g id="line2d_147">
      <g>
       <use style="stroke:#000000;stroke-width:0.5;" x="249.59952" xlink:href="#m282c24dc6a" y="153.503169"/>
      </g>
     </g>
     <g id="text_22">
      <!-- $\mathdefault{25}$ -->
      <g transform="translate(20.227256 156.962418)scale(0.1 -0.1)">
       <use transform="scale(0.996264)" xlink:href="#CMR17-32"/>
       <use transform="translate(45.690477 0)scale(0.996264)" xlink:href="#CMR17-35"/>
      </g>
     </g>
    </g>
    <g id="ytick_28">
     <g id="line2d_148">
      <g>
       <use style="stroke:#000000;stroke-width:0.5;" x="33.689926" xlink:href="#m06f149d5e7" y="217.94031"/>
      </g>
     </g>
     <g id="line2d_149">
      <g>
       <use style="stroke:#000000;stroke-width:0.5;" x="249.59952" xlink:href="#md31f3bfc8b" y="217.94031"/>
      </g>
     </g>
    </g>
    <g id="ytick_29">
     <g id="line2d_150">
      <g>
       <use style="stroke:#000000;stroke-width:0.5;" x="33.689926" xlink:href="#m06f149d5e7" y="215.255429"/>
      </g>
     </g>
     <g id="line2d_151">
      <g>
       <use style="stroke:#000000;stroke-width:0.5;" x="249.59952" xlink:href="#md31f3bfc8b" y="215.255429"/>
      </g>
     </g>
    </g>
    <g id="ytick_30">
     <g id="line2d_152">
      <g>
       <use style="stroke:#000000;stroke-width:0.5;" x="33.689926" xlink:href="#m06f149d5e7" y="212.570548"/>
      </g>
     </g>
     <g id="line2d_153">
      <g>
       <use style="stroke:#000000;stroke-width:0.5;" x="249.59952" xlink:href="#md31f3bfc8b" y="212.570548"/>
      </g>
     </g>
    </g>
    <g id="ytick_31">
     <g id="line2d_154">
      <g>
       <use style="stroke:#000000;stroke-width:0.5;" x="33.689926" xlink:href="#m06f149d5e7" y="209.885668"/>
      </g>
     </g>
     <g id="line2d_155">
      <g>
       <use style="stroke:#000000;stroke-width:0.5;" x="249.59952" xlink:href="#md31f3bfc8b" y="209.885668"/>
      </g>
     </g>
    </g>
    <g id="ytick_32">
     <g id="line2d_156">
      <g>
       <use style="stroke:#000000;stroke-width:0.5;" x="33.689926" xlink:href="#m06f149d5e7" y="204.515906"/>
      </g>
     </g>
     <g id="line2d_157">
      <g>
       <use style="stroke:#000000;stroke-width:0.5;" x="249.59952" xlink:href="#md31f3bfc8b" y="204.515906"/>
      </g>
     </g>
    </g>
    <g id="ytick_33">
     <g id="line2d_158">
      <g>
       <use style="stroke:#000000;stroke-width:0.5;" x="33.689926" xlink:href="#m06f149d5e7" y="201.831025"/>
      </g>
     </g>
     <g id="line2d_159">
      <g>
       <use style="stroke:#000000;stroke-width:0.5;" x="249.59952" xlink:href="#md31f3bfc8b" y="201.831025"/>
      </g>
     </g>
    </g>
    <g id="ytick_34">
     <g id="line2d_160">
      <g>
       <use style="stroke:#000000;stroke-width:0.5;" x="33.689926" xlink:href="#m06f149d5e7" y="199.146144"/>
      </g>
     </g>
     <g id="line2d_161">
      <g>
       <use style="stroke:#000000;stroke-width:0.5;" x="249.59952" xlink:href="#md31f3bfc8b" y="199.146144"/>
      </g>
     </g>
    </g>
    <g id="ytick_35">
     <g id="line2d_162">
      <g>
       <use style="stroke:#000000;stroke-width:0.5;" x="33.689926" xlink:href="#m06f149d5e7" y="196.461263"/>
      </g>
     </g>
     <g id="line2d_163">
      <g>
       <use style="stroke:#000000;stroke-width:0.5;" x="249.59952" xlink:href="#md31f3bfc8b" y="196.461263"/>
      </g>
     </g>
    </g>
    <g id="ytick_36">
     <g id="line2d_164">
      <g>
       <use style="stroke:#000000;stroke-width:0.5;" x="33.689926" xlink:href="#m06f149d5e7" y="191.091501"/>
      </g>
     </g>
     <g id="line2d_165">
      <g>
       <use style="stroke:#000000;stroke-width:0.5;" x="249.59952" xlink:href="#md31f3bfc8b" y="191.091501"/>
      </g>
     </g>
    </g>
    <g id="ytick_37">
     <g id="line2d_166">
      <g>
       <use style="stroke:#000000;stroke-width:0.5;" x="33.689926" xlink:href="#m06f149d5e7" y="188.406621"/>
      </g>
     </g>
     <g id="line2d_167">
      <g>
       <use style="stroke:#000000;stroke-width:0.5;" x="249.59952" xlink:href="#md31f3bfc8b" y="188.406621"/>
      </g>
     </g>
    </g>
    <g id="ytick_38">
     <g id="line2d_168">
      <g>
       <use style="stroke:#000000;stroke-width:0.5;" x="33.689926" xlink:href="#m06f149d5e7" y="185.72174"/>
      </g>
     </g>
     <g id="line2d_169">
      <g>
       <use style="stroke:#000000;stroke-width:0.5;" x="249.59952" xlink:href="#md31f3bfc8b" y="185.72174"/>
      </g>
     </g>
    </g>
    <g id="ytick_39">
     <g id="line2d_170">
      <g>
       <use style="stroke:#000000;stroke-width:0.5;" x="33.689926" xlink:href="#m06f149d5e7" y="183.036859"/>
      </g>
     </g>
     <g id="line2d_171">
      <g>
       <use style="stroke:#000000;stroke-width:0.5;" x="249.59952" xlink:href="#md31f3bfc8b" y="183.036859"/>
      </g>
     </g>
    </g>
    <g id="ytick_40">
     <g id="line2d_172">
      <g>
       <use style="stroke:#000000;stroke-width:0.5;" x="33.689926" xlink:href="#m06f149d5e7" y="177.667097"/>
      </g>
     </g>
     <g id="line2d_173">
      <g>
       <use style="stroke:#000000;stroke-width:0.5;" x="249.59952" xlink:href="#md31f3bfc8b" y="177.667097"/>
      </g>
     </g>
    </g>
    <g id="ytick_41">
     <g id="line2d_174">
      <g>
       <use style="stroke:#000000;stroke-width:0.5;" x="33.689926" xlink:href="#m06f149d5e7" y="174.982216"/>
      </g>
     </g>
     <g id="line2d_175">
      <g>
       <use style="stroke:#000000;stroke-width:0.5;" x="249.59952" xlink:href="#md31f3bfc8b" y="174.982216"/>
      </g>
     </g>
    </g>
    <g id="ytick_42">
     <g id="line2d_176">
      <g>
       <use style="stroke:#000000;stroke-width:0.5;" x="33.689926" xlink:href="#m06f149d5e7" y="172.297335"/>
      </g>
     </g>
     <g id="line2d_177">
      <g>
       <use style="stroke:#000000;stroke-width:0.5;" x="249.59952" xlink:href="#md31f3bfc8b" y="172.297335"/>
      </g>
     </g>
    </g>
    <g id="ytick_43">
     <g id="line2d_178">
      <g>
       <use style="stroke:#000000;stroke-width:0.5;" x="33.689926" xlink:href="#m06f149d5e7" y="169.612455"/>
      </g>
     </g>
     <g id="line2d_179">
      <g>
       <use style="stroke:#000000;stroke-width:0.5;" x="249.59952" xlink:href="#md31f3bfc8b" y="169.612455"/>
      </g>
     </g>
    </g>
    <g id="ytick_44">
     <g id="line2d_180">
      <g>
       <use style="stroke:#000000;stroke-width:0.5;" x="33.689926" xlink:href="#m06f149d5e7" y="164.242693"/>
      </g>
     </g>
     <g id="line2d_181">
      <g>
       <use style="stroke:#000000;stroke-width:0.5;" x="249.59952" xlink:href="#md31f3bfc8b" y="164.242693"/>
      </g>
     </g>
    </g>
    <g id="ytick_45">
     <g id="line2d_182">
      <g>
       <use style="stroke:#000000;stroke-width:0.5;" x="33.689926" xlink:href="#m06f149d5e7" y="161.557812"/>
      </g>
     </g>
     <g id="line2d_183">
      <g>
       <use style="stroke:#000000;stroke-width:0.5;" x="249.59952" xlink:href="#md31f3bfc8b" y="161.557812"/>
      </g>
     </g>
    </g>
    <g id="ytick_46">
     <g id="line2d_184">
      <g>
       <use style="stroke:#000000;stroke-width:0.5;" x="33.689926" xlink:href="#m06f149d5e7" y="158.872931"/>
      </g>
     </g>
     <g id="line2d_185">
      <g>
       <use style="stroke:#000000;stroke-width:0.5;" x="249.59952" xlink:href="#md31f3bfc8b" y="158.872931"/>
      </g>
     </g>
    </g>
    <g id="ytick_47">
     <g id="line2d_186">
      <g>
       <use style="stroke:#000000;stroke-width:0.5;" x="33.689926" xlink:href="#m06f149d5e7" y="156.18805"/>
      </g>
     </g>
     <g id="line2d_187">
      <g>
       <use style="stroke:#000000;stroke-width:0.5;" x="249.59952" xlink:href="#md31f3bfc8b" y="156.18805"/>
      </g>
     </g>
    </g>
   </g>
   <g id="line2d_188">
    <path clip-path="url(#p1d3e7a6df5)" d="M 43.503999 172.630529 
L 48.536856 174.700841 
L 53.569714 173.801943 
L 58.602572 176.833173 
L 63.635429 177.981497 
L 68.668287 181.18268 
L 73.701145 181.427004 
L 78.734002 181.538158 
L 83.76686 183.215403 
L 88.799718 184.723501 
L 93.832575 189.057704 
L 98.865433 187.328909 
L 103.898291 187.830982 
L 108.931148 189.820479 
L 113.964006 190.599094 
L 118.996864 191.3812 
L 124.029721 192.048124 
L 129.062579 193.454734 
L 134.095437 193.416071 
L 139.128294 194.186632 
L 144.161152 194.273085 
L 149.19401 195.823335 
L 154.226867 196.1227 
L 159.259725 195.541155 
L 164.292583 195.829779 
L 169.32544 196.029266 
L 174.358298 195.989261 
L 179.391156 196.233048 
L 184.424013 196.324871 
L 189.456871 196.316548 
L 194.489729 196.351989 
L 199.522586 196.371857 
L 204.555444 196.056115 
L 209.588302 196.32326 
L 214.621159 196.174249 
L 219.654017 196.300976 
L 224.686875 196.422332 
L 229.719732 196.329436 
L 234.75259 196.440858 
L 239.785448 196.410519 
" style="fill:none;stroke:#0c5da5;stroke-linecap:square;"/>
   </g>
   <g id="line2d_189">
    <path clip-path="url(#p1d3e7a6df5)" d="M 43.503999 169.993976 
L 48.536856 175.245335 
L 53.569714 178.218303 
L 58.602572 180.961177 
L 63.635429 180.997692 
L 68.668287 182.491828 
L 73.701145 187.070624 
L 78.734002 189.431171 
L 83.76686 189.891628 
L 88.799718 191.876829 
L 93.832575 194.354169 
L 98.865433 193.361837 
L 103.898291 194.443038 
L 108.931148 194.755021 
L 113.964006 195.884014 
L 118.996864 196.008055 
L 124.029721 195.924019 
L 129.062579 195.962681 
L 134.095437 196.044838 
L 139.128294 196.383133 
L 144.161152 196.413741 
L 149.19401 196.340175 
L 154.226867 196.419111 
L 159.259725 196.13156 
L 164.292583 196.293995 
L 169.32544 196.426091 
L 174.358298 196.208616 
L 179.391156 196.463411 
L 184.424013 196.388503 
L 189.456871 196.322455 
L 194.489729 196.359775 
L 199.522586 196.372931 
L 204.555444 196.375615 
L 209.588302 196.506906 
L 214.621159 195.928314 
L 219.654017 196.35172 
L 224.686875 196.461263 
L 229.719732 196.412667 
L 234.75259 196.229289 
L 239.785448 196.398168 
" style="fill:none;stroke:#00b945;stroke-linecap:square;"/>
   </g>
   <g id="line2d_190">
    <path clip-path="url(#p1d3e7a6df5)" d="M 43.503999 196.398168 
L 48.536856 196.398168 
L 53.569714 196.398168 
L 58.602572 196.398168 
L 63.635429 196.398168 
L 68.668287 196.398168 
L 73.701145 196.398168 
L 78.734002 196.398168 
L 83.76686 196.398168 
L 88.799718 196.398168 
L 93.832575 196.398168 
L 98.865433 196.398168 
L 103.898291 196.398168 
L 108.931148 196.398168 
L 113.964006 196.398168 
L 118.996864 196.398168 
L 124.029721 196.398168 
L 129.062579 196.398168 
L 134.095437 196.398168 
L 139.128294 196.398168 
L 144.161152 196.398168 
L 149.19401 196.398168 
L 154.226867 196.398168 
L 159.259725 196.398168 
L 164.292583 196.398168 
L 169.32544 196.398168 
L 174.358298 196.398168 
L 179.391156 196.398168 
L 184.424013 196.398168 
L 189.456871 196.398168 
L 194.489729 196.398168 
L 199.522586 196.398168 
L 204.555444 196.398168 
L 209.588302 196.398168 
L 214.621159 196.398168 
L 219.654017 196.398168 
L 224.686875 196.398168 
L 229.719732 196.398168 
L 234.75259 196.398168 
L 239.785448 196.398168 
" style="fill:none;stroke:#ff9500;stroke-dasharray:1,1.65;stroke-dashoffset:0;"/>
   </g>
   <g id="patch_8">
    <path d="M 33.689926 220.625191 
L 33.689926 153.503169 
" style="fill:none;stroke:#000000;stroke-linecap:square;stroke-linejoin:miter;stroke-width:0.5;"/>
   </g>
   <g id="patch_9">
    <path d="M 249.59952 220.625191 
L 249.59952 153.503169 
" style="fill:none;stroke:#000000;stroke-linecap:square;stroke-linejoin:miter;stroke-width:0.5;"/>
   </g>
   <g id="patch_10">
    <path d="M 33.689926 220.625191 
L 249.59952 220.625191 
" style="fill:none;stroke:#000000;stroke-linecap:square;stroke-linejoin:miter;stroke-width:0.5;"/>
   </g>
   <g id="patch_11">
    <path d="M 33.689926 153.503169 
L 249.59952 153.503169 
" style="fill:none;stroke:#000000;stroke-linecap:square;stroke-linejoin:miter;stroke-width:0.5;"/>
   </g>
   <g id="legend_2">
    <g id="line2d_191">
     <path d="M 37.689926 128.786372 
L 57.689926 128.786372 
" style="fill:none;stroke:#0c5da5;stroke-linecap:square;"/>
    </g>
    <g id="line2d_192"/>
    <g id="text_23">
     <!-- MSE 1e-3 -->
     <g transform="translate(65.689926 132.286372)scale(0.1 -0.1)">
      <defs>
       <path d="M 2803 4351 
C 2803 4467 2797 4473 2758 4473 
C 2720 4473 2707 4447 2682 4390 
L 2490 3965 
C 2246 4320 1875 4480 1472 4480 
C 819 4480 294 3958 294 3301 
C 294 3101 339 2817 557 2546 
C 794 2250 1018 2198 1530 2063 
C 1722 2011 2042 1927 2106 1901 
C 2470 1747 2662 1360 2662 999 
C 2662 534 2336 38 1779 38 
C 1094 38 454 425 410 1328 
C 403 1431 397 1437 352 1437 
C 301 1437 294 1431 294 1302 
L 294 0 
C 294 -116 301 -122 339 -122 
C 384 -122 397 -90 486 109 
C 493 128 493 141 614 386 
C 934 -39 1472 -128 1779 -128 
C 2477 -128 2970 457 2970 1141 
C 2970 1476 2848 1734 2778 1850 
C 2509 2263 2221 2340 1914 2417 
C 1869 2437 1856 2437 1498 2527 
C 1152 2617 1005 2662 845 2836 
C 666 3036 602 3243 602 3449 
C 602 3868 934 4326 1478 4326 
C 2157 4326 2579 3842 2675 3036 
C 2694 2920 2701 2914 2746 2914 
C 2803 2914 2803 2933 2803 3043 
L 2803 4351 
z
" id="CMR17-53" transform="scale(0.015625)"/>
      </defs>
      <use transform="scale(0.996264)" xlink:href="#CMR17-4d"/>
      <use transform="translate(84.686941 0)scale(0.996264)" xlink:href="#CMR17-53"/>
      <use transform="translate(135.58231 0)scale(0.996264)" xlink:href="#CMR17-45"/>
      <use transform="translate(228.244577 0)scale(0.996264)" xlink:href="#CMR17-31"/>
      <use transform="translate(273.935054 0)scale(0.996264)" xlink:href="#CMR17-65"/>
      <use transform="translate(314.420715 0)scale(0.996264)" xlink:href="#CMR17-2d"/>
      <use transform="translate(344.496681 0)scale(0.996264)" xlink:href="#CMR17-33"/>
     </g>
    </g>
    <g id="line2d_193">
     <path d="M 37.689926 142.723551 
L 57.689926 142.723551 
" style="fill:none;stroke:#00b945;stroke-linecap:square;"/>
    </g>
    <g id="line2d_194"/>
    <g id="text_24">
     <!-- MSE 2e-3 -->
     <g transform="translate(65.689926 146.223551)scale(0.1 -0.1)">
      <use transform="scale(0.996264)" xlink:href="#CMR17-4d"/>
      <use transform="translate(84.686941 0)scale(0.996264)" xlink:href="#CMR17-53"/>
      <use transform="translate(135.58231 0)scale(0.996264)" xlink:href="#CMR17-45"/>
      <use transform="translate(228.244577 0)scale(0.996264)" xlink:href="#CMR17-32"/>
      <use transform="translate(273.935054 0)scale(0.996264)" xlink:href="#CMR17-65"/>
      <use transform="translate(314.420715 0)scale(0.996264)" xlink:href="#CMR17-2d"/>
      <use transform="translate(344.496681 0)scale(0.996264)" xlink:href="#CMR17-33"/>
     </g>
    </g>
    <g id="line2d_195">
     <path d="M 169.944775 128.786372 
L 189.944775 128.786372 
" style="fill:none;stroke:#ff9500;stroke-dasharray:1,1.65;stroke-dashoffset:0;"/>
    </g>
    <g id="line2d_196"/>
    <g id="text_25">
     <!-- Asymptote -->
     <g transform="translate(197.944775 132.286372)scale(0.1 -0.1)">
      <use transform="scale(0.996264)" xlink:href="#CMR17-41"/>
      <use transform="translate(69.07243 0)scale(0.996264)" xlink:href="#CMR17-73"/>
      <use transform="translate(104.873767 0)scale(0.996264)" xlink:href="#CMR17-79"/>
      <use transform="translate(153.166683 0)scale(0.996264)" xlink:href="#CMR17-6d"/>
      <use transform="translate(230.086273 0)scale(0.996264)" xlink:href="#CMR17-70"/>
      <use transform="translate(280.981643 0)scale(0.996264)" xlink:href="#CMR17-74"/>
      <use transform="translate(316.262411 0)scale(0.996264)" xlink:href="#CMR17-6f"/>
      <use transform="translate(361.952888 0)scale(0.996264)" xlink:href="#CMR17-74"/>
      <use transform="translate(397.233656 0)scale(0.996264)" xlink:href="#CMR17-65"/>
     </g>
    </g>
   </g>
  </g>
  <g id="text_26">
   <!-- Number of Epochs -->
   <g transform="translate(78.852223 247.283528)scale(0.12 -0.12)">
    <defs>
     <path d="M 1312 4275 
C 1267 4345 1261 4352 1139 4352 
L 326 4352 
L 326 4185 
L 448 4185 
C 704 4185 819 4153 838 4147 
L 838 624 
C 838 465 838 166 326 166 
L 326 0 
C 474 12 742 12 902 12 
C 1062 12 1331 12 1478 0 
L 1478 166 
C 966 166 966 465 966 624 
L 966 4057 
C 1011 4019 1011 4007 1056 3943 
L 3430 76 
C 3475 0 3494 0 3526 0 
C 3590 0 3590 19 3590 140 
L 3590 3726 
C 3590 3885 3590 4185 4102 4185 
L 4102 4352 
C 3955 4339 3686 4339 3526 4339 
C 3366 4339 3098 4339 2950 4352 
L 2950 4185 
C 3462 4185 3462 3885 3462 3726 
L 3462 777 
L 1312 4275 
z
" id="CMR17-4e" transform="scale(0.015625)"/>
     <path d="M 1882 2745 
L 1882 2579 
C 2259 2579 2317 2540 2317 2229 
L 2317 1053 
C 2317 510 2029 38 1555 38 
C 1030 38 986 355 986 691 
L 986 2816 
L 211 2745 
L 211 2579 
C 467 2579 640 2579 646 2320 
L 646 1079 
C 646 646 646 368 813 187 
C 896 103 1056 -64 1517 -64 
C 2061 -64 2272 400 2323 536 
L 2330 536 
L 2330 -64 
L 3091 -13 
L 3091 154 
C 2714 154 2656 193 2656 503 
L 2656 2816 
L 1882 2745 
z
" id="CMR17-75" transform="scale(0.015625)"/>
     <path d="M 960 4416 
L 198 4345 
L 198 4179 
C 576 4179 634 4141 634 3843 
L 634 -13 
L 749 -13 
L 934 445 
C 1120 141 1395 -64 1766 -64 
C 2406 -64 3053 503 3053 1382 
C 3053 2209 2477 2816 1830 2816 
C 1434 2816 1152 2603 960 2351 
L 960 4416 
z
M 973 2022 
C 973 2138 973 2157 1062 2293 
C 1312 2681 1670 2713 1792 2713 
C 1984 2713 2643 2610 2643 1388 
C 2643 109 1888 38 1734 38 
C 1536 38 1248 115 1043 490 
C 973 613 973 626 973 742 
L 973 2022 
z
" id="CMR17-62" transform="scale(0.015625)"/>
     <path d="M 960 1517 
C 960 2134 1222 2713 1702 2713 
C 1747 2713 1792 2707 1837 2687 
C 1837 2687 1696 2642 1696 2475 
C 1696 2321 1818 2257 1914 2257 
C 1990 2257 2131 2302 2131 2482 
C 2131 2687 1926 2816 1709 2816 
C 1222 2816 1011 2340 947 2115 
L 941 2115 
L 941 2816 
L 198 2745 
L 198 2578 
C 576 2578 634 2540 634 2231 
L 634 443 
C 634 198 608 166 198 166 
L 198 0 
C 352 12 646 12 813 12 
C 998 12 1325 12 1498 0 
L 1498 166 
C 1037 166 960 166 960 455 
L 960 1517 
z
" id="CMR17-72" transform="scale(0.015625)"/>
     <path d="M 979 2585 
L 1709 2585 
L 1709 2752 
L 966 2752 
L 966 3539 
C 966 4076 1235 4377 1510 4377 
C 1594 4377 1690 4363 1754 4339 
C 1702 4326 1568 4281 1568 4121 
C 1568 3955 1696 3904 1786 3904 
C 1875 3904 2003 3955 2003 4121 
C 2003 4353 1773 4480 1517 4480 
C 1152 4480 653 4211 653 3526 
L 653 2752 
L 141 2752 
L 141 2585 
L 653 2585 
L 653 441 
C 653 198 627 166 218 166 
L 218 0 
C 371 12 666 12 832 12 
C 1018 12 1344 12 1517 0 
L 1517 166 
C 1056 166 979 166 979 454 
L 979 2585 
z
" id="CMR17-66" transform="scale(0.015625)"/>
     <path d="M 2234 2240 
C 2112 2240 1933 2240 1933 2015 
C 1933 1836 2080 1785 2163 1785 
C 2208 1785 2394 1804 2394 2028 
C 2394 2476 1958 2816 1466 2816 
C 787 2816 211 2201 211 1379 
C 211 521 813 -64 1466 -64 
C 2259 -64 2458 676 2458 747 
C 2458 773 2451 792 2406 792 
C 2362 792 2355 786 2330 702 
C 2163 180 1798 51 1523 51 
C 1114 51 621 431 621 1385 
C 621 2358 1094 2700 1472 2700 
C 1722 2700 2093 2582 2234 2240 
z
" id="CMR17-63" transform="scale(0.015625)"/>
     <path d="M 2656 1954 
C 2656 2282 2592 2816 1837 2816 
C 1312 2816 1056 2392 979 2179 
L 973 2179 
L 973 4416 
L 211 4345 
L 211 4179 
C 589 4179 646 4141 646 3843 
L 646 443 
C 646 198 621 166 211 166 
L 211 0 
C 365 12 646 12 813 12 
C 979 12 1267 12 1421 0 
L 1421 166 
C 1011 166 986 192 986 443 
L 986 1678 
C 986 2269 1344 2713 1792 2713 
C 2266 2713 2317 2289 2317 1980 
L 2317 443 
C 2317 198 2291 166 1882 166 
L 1882 0 
C 2035 12 2317 12 2483 12 
C 2650 12 2938 12 3091 0 
L 3091 166 
C 2682 166 2656 192 2656 443 
L 2656 1954 
z
" id="CMR17-68" transform="scale(0.015625)"/>
    </defs>
    <use transform="scale(0.996264)" xlink:href="#CMR17-4e"/>
    <use transform="translate(69.07243 0)scale(0.996264)" xlink:href="#CMR17-75"/>
    <use transform="translate(119.9678 0)scale(0.996264)" xlink:href="#CMR17-6d"/>
    <use transform="translate(194.284936 0)scale(0.996264)" xlink:href="#CMR17-62"/>
    <use transform="translate(247.782744 0)scale(0.996264)" xlink:href="#CMR17-65"/>
    <use transform="translate(288.268404 0)scale(0.996264)" xlink:href="#CMR17-72"/>
    <use transform="translate(353.625139 0)scale(0.996264)" xlink:href="#CMR17-6f"/>
    <use transform="translate(399.315616 0)scale(0.996264)" xlink:href="#CMR17-66"/>
    <use transform="translate(456.865095 0)scale(0.996264)" xlink:href="#CMR17-45"/>
    <use transform="translate(519.451395 0)scale(0.996264)" xlink:href="#CMR17-70"/>
    <use transform="translate(572.949204 0)scale(0.996264)" xlink:href="#CMR17-6f"/>
    <use transform="translate(621.242119 0)scale(0.996264)" xlink:href="#CMR17-63"/>
    <use transform="translate(659.125326 0)scale(0.996264)" xlink:href="#CMR17-68"/>
    <use transform="translate(710.020696 0)scale(0.996264)" xlink:href="#CMR17-73"/>
   </g>
  </g>
  <g id="text_27">
   <!-- Average Error -->
   <g transform="translate(11.90218 162.942569)rotate(-90)scale(0.12 -0.12)">
    <defs>
     <path d="M 2502 2173 
C 2560 2315 2662 2572 3034 2585 
L 3034 2752 
C 2912 2745 2752 2739 2630 2739 
C 2496 2739 2285 2739 2157 2752 
L 2157 2585 
C 2317 2572 2406 2495 2406 2328 
C 2406 2270 2406 2257 2368 2167 
L 1664 379 
L 902 2308 
C 864 2392 864 2405 864 2431 
C 864 2585 1075 2585 1171 2585 
L 1171 2752 
C 1018 2739 736 2739 576 2739 
C 403 2739 205 2739 64 2752 
L 64 2585 
C 307 2585 442 2585 518 2386 
L 1446 44 
C 1485 -52 1491 -64 1549 -64 
C 1606 -64 1613 -52 1651 44 
L 2502 2173 
z
" id="CMR17-76" transform="scale(0.015625)"/>
     <path d="M 2304 1656 
C 2304 2048 2304 2275 2035 2534 
C 1798 2751 1523 2816 1306 2816 
C 800 2816 435 2408 435 1977 
C 435 1740 627 1728 666 1728 
C 749 1728 896 1779 896 1958 
C 896 2118 774 2188 666 2188 
C 640 2188 608 2182 589 2176 
C 723 2594 1069 2713 1293 2713 
C 1613 2713 1965 2421 1965 1875 
L 1965 1632 
C 1587 1619 1133 1568 774 1373 
C 371 1147 256 822 256 576 
C 256 77 832 -64 1171 -64 
C 1523 -64 1850 135 1990 505 
C 2003 219 2182 -39 2464 -39 
C 2598 -39 2938 51 2938 563 
L 2938 926 
L 2822 926 
L 2822 557 
C 2822 161 2650 109 2566 109 
C 2304 109 2304 446 2304 732 
L 2304 1656 
z
M 1965 887 
C 1965 323 1568 38 1216 38 
C 896 38 646 278 646 576 
C 646 771 730 1114 1101 1322 
C 1408 1497 1760 1523 1965 1536 
L 1965 887 
z
" id="CMR17-61" transform="scale(0.015625)"/>
     <path d="M 710 1165 
C 832 1068 1043 960 1299 960 
C 1805 960 2240 1359 2240 1895 
C 2240 2063 2189 2321 1997 2521 
C 2176 2713 2438 2777 2586 2777 
C 2611 2777 2650 2777 2682 2758 
C 2656 2751 2598 2726 2598 2623 
C 2598 2540 2656 2483 2739 2483 
C 2835 2483 2886 2547 2886 2630 
C 2886 2751 2790 2880 2586 2880 
C 2330 2880 2106 2758 1926 2591 
C 1734 2764 1504 2828 1299 2828 
C 794 2828 358 2431 358 1895 
C 358 1527 570 1294 634 1230 
C 442 1004 442 742 442 710 
C 442 544 506 300 723 166 
C 390 82 128 -184 128 -517 
C 128 -996 736 -1344 1466 -1344 
C 2170 -1344 2803 -1009 2803 -510 
C 2803 384 1856 384 1363 384 
C 1216 384 954 384 922 390 
C 723 422 589 601 589 825 
C 589 883 589 1024 710 1165 
z
M 1299 1068 
C 736 1068 736 1766 736 1895 
C 736 2024 736 2719 1299 2719 
C 1862 2719 1862 2024 1862 1895 
C 1862 1766 1862 1068 1299 1068 
z
M 1466 -1236 
C 826 -1236 384 -883 384 -517 
C 384 -311 493 -118 634 -11 
C 794 102 858 102 1293 102 
C 1818 102 2547 102 2547 -517 
C 2547 -883 2106 -1236 1466 -1236 
z
" id="CMR17-67" transform="scale(0.015625)"/>
    </defs>
    <use transform="scale(0.996264)" xlink:href="#CMR17-41"/>
    <use transform="translate(69.07243 0)scale(0.996264)" xlink:href="#CMR17-76"/>
    <use transform="translate(114.762892 0)scale(0.996264)" xlink:href="#CMR17-65"/>
    <use transform="translate(155.248552 0)scale(0.996264)" xlink:href="#CMR17-72"/>
    <use transform="translate(190.52932 0)scale(0.996264)" xlink:href="#CMR17-61"/>
    <use transform="translate(236.219797 0)scale(0.996264)" xlink:href="#CMR17-67"/>
    <use transform="translate(281.910274 0)scale(0.996264)" xlink:href="#CMR17-65"/>
    <use transform="translate(352.471901 0)scale(0.996264)" xlink:href="#CMR17-45"/>
    <use transform="translate(415.058202 0)scale(0.996264)" xlink:href="#CMR17-72"/>
    <use transform="translate(450.338969 0)scale(0.996264)" xlink:href="#CMR17-72"/>
    <use transform="translate(485.619737 0)scale(0.996264)" xlink:href="#CMR17-6f"/>
    <use transform="translate(531.310214 0)scale(0.996264)" xlink:href="#CMR17-72"/>
   </g>
  </g>
 </g>
 <defs>
  <clipPath id="p8425168a0f">
   <rect height="67.122022" width="215.909594" x="33.689926" y="35.816797"/>
  </clipPath>
  <clipPath id="p1d3e7a6df5">
   <rect height="67.122022" width="215.909594" x="33.689926" y="153.503169"/>
  </clipPath>
 </defs>
</svg>
